# xmcd
#
# Track frame offsets:
#	150
#	40561
#	56456
#	75508
#	86385
#	104186
#	116717
#	137348
#	150988
#	165050
#	175507
#	192504
#	205899
#	227121
#	246939
#	258084
#	270904
#	284081
#	299163
#	316315
#
# Disc length: 4469 seconds
#
# Revision: 0
# Processed by: cddbd v1.5.2PL0 Copyright (c) Steve Scherf et al.
# Submitted via: EZCDAudioConverter 8.0.7.1
#
DISCID=0c117314
DTITLE=John Mayall - London Blues (1993)
DYEAR=1993
DGENRE=Blues
TTITLE0=Crawling Up A Hill
TTITLE1=My Baby Is Sweeter
TTITLE2=Crocodille Walk
TTITLE3=Blues City Shakedown
TTITLE4=I'm Your Witchdoctor
TTITLE5=Telephone Blues
TTITLE6=Bernard Jenkins
TTITLE7=All Your Love
TTITLE8=Double Crossing Time
TTITLE9=Key To Love
TTITLE10=Parchman Farm
TTITLE11=Looking Back
TTITLE12=So Many Roads
TTITLE13=Sitting In The Rain
TTITLE14=A Hard Road
TTITLE15=Dust My Blues
TTITLE16=The Supernatural
TTITLE17=Another Kinda Love
TTITLE18=Leaping Christine
TTITLE19=Burn Out Your Blind Eyes
EXTD=
EXTT0=
EXTT1=
EXTT2=
EXTT3=
EXTT4=
EXTT5=
EXTT6=
EXTT7=
EXTT8=
EXTT9=
EXTT10=
EXTT11=
EXTT12=
EXTT13=
EXTT14=
EXTT15=
EXTT16=
EXTT17=
EXTT18=
EXTT19=
PLAYORDER=
